%TF.GenerationSoftware,KiCad,Pcbnew,9.0.0*%
%TF.CreationDate,2025-03-13T20:31:58+01:00*%
%TF.ProjectId,Tasterplatine,54617374-6572-4706-9c61-74696e652e6b,1*%
%TF.SameCoordinates,Original*%
%TF.FileFunction,Copper,L2,Bot*%
%TF.FilePolarity,Positive*%
%FSLAX46Y46*%
G04 Gerber Fmt 4.6, Leading zero omitted, Abs format (unit mm)*
G04 Created by KiCad (PCBNEW 9.0.0) date 2025-03-13 20:31:58*
%MOMM*%
%LPD*%
G01*
G04 APERTURE LIST*
G04 Aperture macros list*
%AMRoundRect*
0 Rectangle with rounded corners*
0 $1 Rounding radius*
0 $2 $3 $4 $5 $6 $7 $8 $9 X,Y pos of 4 corners*
0 Add a 4 corners polygon primitive as box body*
4,1,4,$2,$3,$4,$5,$6,$7,$8,$9,$2,$3,0*
0 Add four circle primitives for the rounded corners*
1,1,$1+$1,$2,$3*
1,1,$1+$1,$4,$5*
1,1,$1+$1,$6,$7*
1,1,$1+$1,$8,$9*
0 Add four rect primitives between the rounded corners*
20,1,$1+$1,$2,$3,$4,$5,0*
20,1,$1+$1,$4,$5,$6,$7,0*
20,1,$1+$1,$6,$7,$8,$9,0*
20,1,$1+$1,$8,$9,$2,$3,0*%
G04 Aperture macros list end*
%ADD10C,0.250000*%
%TA.AperFunction,NonConductor*%
%ADD11C,0.250000*%
%TD*%
%TA.AperFunction,ComponentPad*%
%ADD12C,2.500000*%
%TD*%
%TA.AperFunction,ComponentPad*%
%ADD13RoundRect,0.250000X0.600000X0.725000X-0.600000X0.725000X-0.600000X-0.725000X0.600000X-0.725000X0*%
%TD*%
%TA.AperFunction,ComponentPad*%
%ADD14O,1.700000X1.950000*%
%TD*%
%TA.AperFunction,ViaPad*%
%ADD15C,1.000000*%
%TD*%
%TA.AperFunction,Conductor*%
%ADD16C,1.000000*%
%TD*%
%TA.AperFunction,Conductor*%
%ADD17C,1.500000*%
%TD*%
G04 APERTURE END LIST*
D10*
D11*
X67916193Y-56408904D02*
X67916193Y-57742238D01*
X68249527Y-55647000D02*
X68582860Y-57075571D01*
X68582860Y-57075571D02*
X67716193Y-57075571D01*
X66916194Y-55742238D02*
X66782860Y-55742238D01*
X66782860Y-55742238D02*
X66649527Y-55837476D01*
X66649527Y-55837476D02*
X66582860Y-55932714D01*
X66582860Y-55932714D02*
X66516194Y-56123190D01*
X66516194Y-56123190D02*
X66449527Y-56504142D01*
X66449527Y-56504142D02*
X66449527Y-56980333D01*
X66449527Y-56980333D02*
X66516194Y-57361285D01*
X66516194Y-57361285D02*
X66582860Y-57551761D01*
X66582860Y-57551761D02*
X66649527Y-57647000D01*
X66649527Y-57647000D02*
X66782860Y-57742238D01*
X66782860Y-57742238D02*
X66916194Y-57742238D01*
X66916194Y-57742238D02*
X67049527Y-57647000D01*
X67049527Y-57647000D02*
X67116194Y-57551761D01*
X67116194Y-57551761D02*
X67182860Y-57361285D01*
X67182860Y-57361285D02*
X67249527Y-56980333D01*
X67249527Y-56980333D02*
X67249527Y-56504142D01*
X67249527Y-56504142D02*
X67182860Y-56123190D01*
X67182860Y-56123190D02*
X67116194Y-55932714D01*
X67116194Y-55932714D02*
X67049527Y-55837476D01*
X67049527Y-55837476D02*
X66916194Y-55742238D01*
X65982861Y-55742238D02*
X65049527Y-55742238D01*
X65049527Y-55742238D02*
X65649527Y-57742238D01*
X64449528Y-57742238D02*
X64182861Y-57742238D01*
X64182861Y-57742238D02*
X64049528Y-57647000D01*
X64049528Y-57647000D02*
X63982861Y-57551761D01*
X63982861Y-57551761D02*
X63849528Y-57266047D01*
X63849528Y-57266047D02*
X63782861Y-56885095D01*
X63782861Y-56885095D02*
X63782861Y-56123190D01*
X63782861Y-56123190D02*
X63849528Y-55932714D01*
X63849528Y-55932714D02*
X63916194Y-55837476D01*
X63916194Y-55837476D02*
X64049528Y-55742238D01*
X64049528Y-55742238D02*
X64316194Y-55742238D01*
X64316194Y-55742238D02*
X64449528Y-55837476D01*
X64449528Y-55837476D02*
X64516194Y-55932714D01*
X64516194Y-55932714D02*
X64582861Y-56123190D01*
X64582861Y-56123190D02*
X64582861Y-56599380D01*
X64582861Y-56599380D02*
X64516194Y-56789857D01*
X64516194Y-56789857D02*
X64449528Y-56885095D01*
X64449528Y-56885095D02*
X64316194Y-56980333D01*
X64316194Y-56980333D02*
X64049528Y-56980333D01*
X64049528Y-56980333D02*
X63916194Y-56885095D01*
X63916194Y-56885095D02*
X63849528Y-56789857D01*
X63849528Y-56789857D02*
X63782861Y-56599380D01*
X62182861Y-55647000D02*
X63382861Y-58218428D01*
X61449528Y-55742238D02*
X61316194Y-55742238D01*
X61316194Y-55742238D02*
X61182861Y-55837476D01*
X61182861Y-55837476D02*
X61116194Y-55932714D01*
X61116194Y-55932714D02*
X61049528Y-56123190D01*
X61049528Y-56123190D02*
X60982861Y-56504142D01*
X60982861Y-56504142D02*
X60982861Y-56980333D01*
X60982861Y-56980333D02*
X61049528Y-57361285D01*
X61049528Y-57361285D02*
X61116194Y-57551761D01*
X61116194Y-57551761D02*
X61182861Y-57647000D01*
X61182861Y-57647000D02*
X61316194Y-57742238D01*
X61316194Y-57742238D02*
X61449528Y-57742238D01*
X61449528Y-57742238D02*
X61582861Y-57647000D01*
X61582861Y-57647000D02*
X61649528Y-57551761D01*
X61649528Y-57551761D02*
X61716194Y-57361285D01*
X61716194Y-57361285D02*
X61782861Y-56980333D01*
X61782861Y-56980333D02*
X61782861Y-56504142D01*
X61782861Y-56504142D02*
X61716194Y-56123190D01*
X61716194Y-56123190D02*
X61649528Y-55932714D01*
X61649528Y-55932714D02*
X61582861Y-55837476D01*
X61582861Y-55837476D02*
X61449528Y-55742238D01*
X60516195Y-55742238D02*
X59649528Y-55742238D01*
X59649528Y-55742238D02*
X60116195Y-56504142D01*
X60116195Y-56504142D02*
X59916195Y-56504142D01*
X59916195Y-56504142D02*
X59782861Y-56599380D01*
X59782861Y-56599380D02*
X59716195Y-56694619D01*
X59716195Y-56694619D02*
X59649528Y-56885095D01*
X59649528Y-56885095D02*
X59649528Y-57361285D01*
X59649528Y-57361285D02*
X59716195Y-57551761D01*
X59716195Y-57551761D02*
X59782861Y-57647000D01*
X59782861Y-57647000D02*
X59916195Y-57742238D01*
X59916195Y-57742238D02*
X60316195Y-57742238D01*
X60316195Y-57742238D02*
X60449528Y-57647000D01*
X60449528Y-57647000D02*
X60516195Y-57551761D01*
X58782862Y-55742238D02*
X58649528Y-55742238D01*
X58649528Y-55742238D02*
X58516195Y-55837476D01*
X58516195Y-55837476D02*
X58449528Y-55932714D01*
X58449528Y-55932714D02*
X58382862Y-56123190D01*
X58382862Y-56123190D02*
X58316195Y-56504142D01*
X58316195Y-56504142D02*
X58316195Y-56980333D01*
X58316195Y-56980333D02*
X58382862Y-57361285D01*
X58382862Y-57361285D02*
X58449528Y-57551761D01*
X58449528Y-57551761D02*
X58516195Y-57647000D01*
X58516195Y-57647000D02*
X58649528Y-57742238D01*
X58649528Y-57742238D02*
X58782862Y-57742238D01*
X58782862Y-57742238D02*
X58916195Y-57647000D01*
X58916195Y-57647000D02*
X58982862Y-57551761D01*
X58982862Y-57551761D02*
X59049528Y-57361285D01*
X59049528Y-57361285D02*
X59116195Y-56980333D01*
X59116195Y-56980333D02*
X59116195Y-56504142D01*
X59116195Y-56504142D02*
X59049528Y-56123190D01*
X59049528Y-56123190D02*
X58982862Y-55932714D01*
X58982862Y-55932714D02*
X58916195Y-55837476D01*
X58916195Y-55837476D02*
X58782862Y-55742238D01*
X57049529Y-55742238D02*
X57716195Y-55742238D01*
X57716195Y-55742238D02*
X57782862Y-56694619D01*
X57782862Y-56694619D02*
X57716195Y-56599380D01*
X57716195Y-56599380D02*
X57582862Y-56504142D01*
X57582862Y-56504142D02*
X57249529Y-56504142D01*
X57249529Y-56504142D02*
X57116195Y-56599380D01*
X57116195Y-56599380D02*
X57049529Y-56694619D01*
X57049529Y-56694619D02*
X56982862Y-56885095D01*
X56982862Y-56885095D02*
X56982862Y-57361285D01*
X56982862Y-57361285D02*
X57049529Y-57551761D01*
X57049529Y-57551761D02*
X57116195Y-57647000D01*
X57116195Y-57647000D02*
X57249529Y-57742238D01*
X57249529Y-57742238D02*
X57582862Y-57742238D01*
X57582862Y-57742238D02*
X57716195Y-57647000D01*
X57716195Y-57647000D02*
X57782862Y-57551761D01*
X56116196Y-55742238D02*
X55982862Y-55742238D01*
X55982862Y-55742238D02*
X55849529Y-55837476D01*
X55849529Y-55837476D02*
X55782862Y-55932714D01*
X55782862Y-55932714D02*
X55716196Y-56123190D01*
X55716196Y-56123190D02*
X55649529Y-56504142D01*
X55649529Y-56504142D02*
X55649529Y-56980333D01*
X55649529Y-56980333D02*
X55716196Y-57361285D01*
X55716196Y-57361285D02*
X55782862Y-57551761D01*
X55782862Y-57551761D02*
X55849529Y-57647000D01*
X55849529Y-57647000D02*
X55982862Y-57742238D01*
X55982862Y-57742238D02*
X56116196Y-57742238D01*
X56116196Y-57742238D02*
X56249529Y-57647000D01*
X56249529Y-57647000D02*
X56316196Y-57551761D01*
X56316196Y-57551761D02*
X56382862Y-57361285D01*
X56382862Y-57361285D02*
X56449529Y-56980333D01*
X56449529Y-56980333D02*
X56449529Y-56504142D01*
X56449529Y-56504142D02*
X56382862Y-56123190D01*
X56382862Y-56123190D02*
X56316196Y-55932714D01*
X56316196Y-55932714D02*
X56249529Y-55837476D01*
X56249529Y-55837476D02*
X56116196Y-55742238D01*
X54316196Y-57742238D02*
X55116196Y-57742238D01*
X54716196Y-57742238D02*
X54716196Y-55742238D01*
X54716196Y-55742238D02*
X54849529Y-56027952D01*
X54849529Y-56027952D02*
X54982863Y-56218428D01*
X54982863Y-56218428D02*
X55116196Y-56313666D01*
X52716196Y-55647000D02*
X53916196Y-58218428D01*
X52249529Y-56694619D02*
X51782863Y-56694619D01*
X51582863Y-57742238D02*
X52249529Y-57742238D01*
X52249529Y-57742238D02*
X52249529Y-55742238D01*
X52249529Y-55742238D02*
X51582863Y-55742238D01*
D12*
%TO.P,LA1,1,-*%
%TO.N,Net-(J1-Pin_5)*%
X51514000Y-60920000D03*
%TO.P,LA1,2,+*%
%TO.N,Net-(J1-Pin_4)*%
X61514000Y-60920000D03*
%TD*%
%TO.P,SW1,1,A*%
%TO.N,Net-(J1-Pin_2)*%
X46839000Y-78000000D03*
%TO.P,SW1,2,B*%
%TO.N,Net-(J1-Pin_3)*%
X44339000Y-75500000D03*
%TO.P,SW1,3,C*%
%TO.N,Net-(J1-Pin_1)*%
X46839000Y-73000000D03*
%TD*%
D13*
%TO.P,J1,1,Pin_1*%
%TO.N,Net-(J1-Pin_1)*%
X65764000Y-78500000D03*
D14*
%TO.P,J1,2,Pin_2*%
%TO.N,Net-(J1-Pin_2)*%
X63264000Y-78500000D03*
%TO.P,J1,3,Pin_3*%
%TO.N,Net-(J1-Pin_3)*%
X60764000Y-78500000D03*
%TO.P,J1,4,Pin_4*%
%TO.N,Net-(J1-Pin_4)*%
X58264000Y-78500000D03*
%TO.P,J1,5,Pin_5*%
%TO.N,Net-(J1-Pin_5)*%
X55764000Y-78500000D03*
%TO.P,J1,6,Pin_6*%
%TO.N,unconnected-(J1-Pin_6-Pad6)*%
X53264000Y-78500000D03*
%TD*%
D15*
%TO.N,Net-(J1-Pin_3)*%
X61014000Y-85500000D03*
%TD*%
D16*
%TO.N,Net-(J1-Pin_4)*%
X58264000Y-78500000D02*
X58264000Y-75250000D01*
X61514000Y-72000000D02*
X61514000Y-60920000D01*
X58264000Y-75250000D02*
X61514000Y-72000000D01*
%TO.N,Net-(J1-Pin_5)*%
X55764000Y-75250000D02*
X51514000Y-71000000D01*
X55764000Y-78500000D02*
X55764000Y-75250000D01*
X51514000Y-71000000D02*
X51514000Y-60920000D01*
D17*
%TO.N,Net-(J1-Pin_2)*%
X46839000Y-78000000D02*
X46839000Y-82325000D01*
X46839000Y-82325000D02*
X47014000Y-82500000D01*
X47014000Y-82500000D02*
X63014000Y-82500000D01*
X63014000Y-82500000D02*
X63264000Y-82250000D01*
X63264000Y-82250000D02*
X63264000Y-78500000D01*
%TO.N,Net-(J1-Pin_3)*%
X44339000Y-85325000D02*
X44514000Y-85500000D01*
X44514000Y-85500000D02*
X61014000Y-85500000D01*
X44339000Y-75500000D02*
X44339000Y-85325000D01*
%TD*%
M02*
