%TF.GenerationSoftware,KiCad,Pcbnew,9.0.0*%
%TF.CreationDate,2025-03-13T20:31:58+01:00*%
%TF.ProjectId,Tasterplatine,54617374-6572-4706-9c61-74696e652e6b,1*%
%TF.SameCoordinates,Original*%
%TF.FileFunction,Legend,Bot*%
%TF.FilePolarity,Positive*%
%FSLAX46Y46*%
G04 Gerber Fmt 4.6, Leading zero omitted, Abs format (unit mm)*
G04 Created by KiCad (PCBNEW 9.0.0) date 2025-03-13 20:31:58*
%MOMM*%
%LPD*%
G01*
G04 APERTURE LIST*
G04 Aperture macros list*
%AMRoundRect*
0 Rectangle with rounded corners*
0 $1 Rounding radius*
0 $2 $3 $4 $5 $6 $7 $8 $9 X,Y pos of 4 corners*
0 Add a 4 corners polygon primitive as box body*
4,1,4,$2,$3,$4,$5,$6,$7,$8,$9,$2,$3,0*
0 Add four circle primitives for the rounded corners*
1,1,$1+$1,$2,$3*
1,1,$1+$1,$4,$5*
1,1,$1+$1,$6,$7*
1,1,$1+$1,$8,$9*
0 Add four rect primitives between the rounded corners*
20,1,$1+$1,$2,$3,$4,$5,0*
20,1,$1+$1,$4,$5,$6,$7,0*
20,1,$1+$1,$6,$7,$8,$9,0*
20,1,$1+$1,$8,$9,$2,$3,0*%
G04 Aperture macros list end*
%ADD10C,0.150000*%
%ADD11C,0.120000*%
%ADD12C,2.500000*%
%ADD13RoundRect,0.250000X0.600000X0.725000X-0.600000X0.725000X-0.600000X-0.725000X0.600000X-0.725000X0*%
%ADD14O,1.700000X1.950000*%
G04 APERTURE END LIST*
D10*
X59847333Y-70054819D02*
X59847333Y-70769104D01*
X59847333Y-70769104D02*
X59894952Y-70911961D01*
X59894952Y-70911961D02*
X59990190Y-71007200D01*
X59990190Y-71007200D02*
X60133047Y-71054819D01*
X60133047Y-71054819D02*
X60228285Y-71054819D01*
X58847333Y-71054819D02*
X59418761Y-71054819D01*
X59133047Y-71054819D02*
X59133047Y-70054819D01*
X59133047Y-70054819D02*
X59228285Y-70197676D01*
X59228285Y-70197676D02*
X59323523Y-70292914D01*
X59323523Y-70292914D02*
X59418761Y-70340533D01*
D11*
%TO.C,J1*%
X50654000Y-71690000D02*
X50654000Y-80110000D01*
X50654000Y-72910000D02*
X51874000Y-72910000D01*
X50654000Y-80110000D02*
X51874000Y-80110000D01*
X51874000Y-72910000D02*
X51874000Y-77910000D01*
X51874000Y-77910000D02*
X50654000Y-77910000D01*
X51874000Y-80110000D02*
X51874000Y-77910000D01*
X52944000Y-73490000D02*
X52944000Y-76910000D01*
X52944000Y-76910000D02*
X53264000Y-76910000D01*
X53264000Y-73410000D02*
X52944000Y-73490000D01*
X53264000Y-76910000D02*
X53584000Y-76910000D01*
X53584000Y-73490000D02*
X53264000Y-73410000D01*
X53584000Y-76910000D02*
X53584000Y-73490000D01*
X54594000Y-77910000D02*
X54434000Y-77910000D01*
X55444000Y-73490000D02*
X55444000Y-76910000D01*
X55444000Y-76910000D02*
X55764000Y-76910000D01*
X55764000Y-73410000D02*
X55444000Y-73490000D01*
X55764000Y-76910000D02*
X56084000Y-76910000D01*
X56084000Y-73490000D02*
X55764000Y-73410000D01*
X56084000Y-76910000D02*
X56084000Y-73490000D01*
X57094000Y-77910000D02*
X56934000Y-77910000D01*
X57944000Y-73490000D02*
X57944000Y-76910000D01*
X57944000Y-76910000D02*
X58264000Y-76910000D01*
X58264000Y-73410000D02*
X57944000Y-73490000D01*
X58264000Y-76910000D02*
X58584000Y-76910000D01*
X58584000Y-73490000D02*
X58264000Y-73410000D01*
X58584000Y-76910000D02*
X58584000Y-73490000D01*
X59594000Y-77910000D02*
X59434000Y-77910000D01*
X60444000Y-73490000D02*
X60444000Y-76910000D01*
X60444000Y-76910000D02*
X60764000Y-76910000D01*
X60764000Y-73410000D02*
X60444000Y-73490000D01*
X60764000Y-76910000D02*
X61084000Y-76910000D01*
X61084000Y-73490000D02*
X60764000Y-73410000D01*
X61084000Y-76910000D02*
X61084000Y-73490000D01*
X62094000Y-77910000D02*
X61934000Y-77910000D01*
X62944000Y-73490000D02*
X62944000Y-76910000D01*
X62944000Y-76910000D02*
X63264000Y-76910000D01*
X63264000Y-73410000D02*
X62944000Y-73490000D01*
X63264000Y-76910000D02*
X63584000Y-76910000D01*
X63584000Y-73490000D02*
X63264000Y-73410000D01*
X63584000Y-76910000D02*
X63584000Y-73490000D01*
X64594000Y-77910000D02*
X64434000Y-77910000D01*
X65444000Y-73490000D02*
X65444000Y-76910000D01*
X65444000Y-76910000D02*
X65764000Y-76910000D01*
X65464000Y-80600000D02*
X65764000Y-80000000D01*
X65764000Y-73410000D02*
X65444000Y-73490000D01*
X65764000Y-76910000D02*
X66084000Y-76910000D01*
X65764000Y-80000000D02*
X66064000Y-80600000D01*
X66064000Y-80600000D02*
X65464000Y-80600000D01*
X66084000Y-73490000D02*
X65764000Y-73410000D01*
X66084000Y-76910000D02*
X66084000Y-73490000D01*
X67154000Y-72910000D02*
X67154000Y-77910000D01*
X67154000Y-76910000D02*
X51874000Y-76910000D01*
X67154000Y-77910000D02*
X67154000Y-80110000D01*
X67154000Y-77910000D02*
X68374000Y-77910000D01*
X67154000Y-80110000D02*
X68374000Y-80110000D01*
X68374000Y-71690000D02*
X50654000Y-71690000D01*
X68374000Y-72910000D02*
X67154000Y-72910000D01*
X68374000Y-80110000D02*
X68374000Y-71690000D01*
%TD*%
%LPC*%
D12*
%TO.C,LA1*%
X51514000Y-60920000D03*
X61514000Y-60920000D03*
%TD*%
%TO.C,SW1*%
X46839000Y-78000000D03*
X44339000Y-75500000D03*
X46839000Y-73000000D03*
%TD*%
D13*
%TO.C,J1*%
X65764000Y-78500000D03*
D14*
X63264000Y-78500000D03*
X60764000Y-78500000D03*
X58264000Y-78500000D03*
X55764000Y-78500000D03*
X53264000Y-78500000D03*
%TD*%
%LPD*%
M02*
